<?xml version="1.0" standalone="no"?>
<!DOCTYPE svg PUBLIC "-//W3C//DTD SVG 20010904//EN"
 "http://www.w3.org/TR/2001/REC-SVG-20010904/DTD/svg10.dtd">
<svg version="1.0" xmlns="http://www.w3.org/2000/svg"
 width="1080.000000pt" height="462.000000pt" viewBox="0 0 1080.000000 462.000000"
 preserveAspectRatio="xMidYMid meet">
<metadata>
Created by potrace 1.16, written by Peter Selinger 2001-2019
</metadata>
<g transform="translate(0.000000,462.000000) scale(0.100000,-0.100000)"
fill="#000000" stroke="none">
<path d="M0 2310 l0 -2310 5400 0 5400 0 0 2310 0 2310 -5400 0 -5400 0 0
-2310z m3274 858 c24 -37 26 -73 6 -106 l-19 -31 -300 -3 c-296 -3 -301 -3
-323 -25 -33 -33 -39 -147 -10 -183 l20 -25 249 -5 c236 -5 250 -6 292 -28
113 -61 157 -156 141 -304 -12 -106 -66 -178 -165 -219 -21 -9 -130 -14 -368
-16 l-337 -4 -25 27 c-31 33 -33 81 -4 118 l20 26 334 0 334 0 19 25 c37 47
40 135 6 180 -14 19 -30 20 -257 25 -225 5 -246 7 -292 28 -60 28 -100 63
-128 117 -19 34 -22 56 -22 140 1 119 22 175 87 226 70 56 85 58 420 59 l308
0 14 -22z m3867 -13 c64 -45 83 -91 87 -207 4 -113 -12 -183 -58 -246 -37 -51
-119 -100 -182 -108 -27 -4 -48 -9 -48 -13 0 -3 56 -55 125 -115 69 -60 128
-118 131 -131 7 -27 -19 -80 -45 -95 -44 -23 -65 -11 -216 121 -301 263 -278
238 -279 290 -1 28 6 55 17 72 l17 27 131 0 c205 0 239 26 239 183 l0 87 -280
0 -280 0 0 -375 c0 -362 -1 -376 -20 -395 -28 -28 -98 -27 -128 0 -22 21 -22
21 -22 451 l0 431 30 30 30 30 354 -4 354 -3 43 -30z m-3454 -31 c152 -177
363 -275 528 -247 125 21 235 98 371 256 46 54 83 62 128 26 l26 -20 0 -438
c0 -495 4 -469 -80 -473 -36 -1 -47 3 -67 26 -23 27 -23 28 -23 311 l0 284
-77 -38 c-126 -62 -227 -85 -368 -84 -143 1 -240 24 -355 83 -55 30 -76 36
-83 27 -4 -6 -5 -134 -2 -282 7 -266 6 -270 -15 -298 -18 -22 -29 -27 -67 -27
-88 0 -83 -27 -83 467 l0 434 25 24 c16 17 35 25 59 25 30 0 42 -8 83 -56z
m1911 20 c33 -27 131 -157 132 -176 0 -4 -12 5 -27 19 -54 50 -120 66 -161 37
-12 -8 -26 -12 -32 -9 -5 3 -7 0 -4 -8 4 -11 -3 -14 -23 -14 -15 0 -22 2 -15
4 6 3 12 9 12 15 0 6 -6 8 -14 5 -8 -3 -17 1 -20 9 -3 8 -14 14 -25 14 -10 0
-21 7 -25 15 -3 8 -17 15 -31 15 -32 0 -31 8 3 46 43 49 80 65 140 61 40 -3
61 -11 90 -33z m2776 11 c26 -39 16 -104 -18 -127 -6 -4 -93 -8 -193 -8 l-183
0 0 -378 c0 -366 -1 -380 -20 -397 -13 -11 -37 -18 -66 -19 -37 -1 -50 4 -65
23 -18 22 -19 44 -19 397 l0 374 -178 0 c-195 0 -202 2 -217 60 -7 28 9 80 28
92 7 4 215 8 463 8 l452 0 16 -25z m-2288 -732 c-3 -8 -2 -11 4 -8 13 8 60
-66 60 -96 0 -64 -102 -120 -155 -85 -26 17 -69 91 -61 105 3 4 18 7 35 6 21
-1 28 2 24 12 -3 7 2 13 12 13 9 0 13 4 10 10 -3 6 1 7 9 4 11 -4 16 0 16 10
0 9 5 16 10 16 6 0 10 9 10 20 0 13 5 18 16 13 8 -3 13 -12 10 -20z m2304
-392 c0 -6 -51 -11 -112 -13 -306 -8 -5868 3 -5868 12 0 7 1010 10 2990 10
1854 0 2990 -4 2990 -9z m-4445 -340 l80 -71 5 77 c5 71 7 78 25 75 11 -2 21
-5 23 -7 1 -1 1 -57 0 -124 l-3 -122 -95 84 -95 85 -3 -79 c-3 -76 -4 -79 -27
-79 l-25 0 0 132 c0 124 1 130 18 116 9 -9 53 -47 97 -87z m3743 -63 c2 -5 8
-8 13 -8 5 0 9 33 9 73 0 41 3 76 6 79 3 3 14 4 25 1 17 -5 19 -15 19 -129 0
-68 -3 -124 -6 -124 -3 0 -48 39 -100 86 l-94 86 0 -81 c0 -80 0 -81 -25 -81
l-25 0 0 131 0 131 88 -78 c48 -44 89 -82 90 -86z m-4254 142 c17 -6 26 -17
26 -30 0 -18 -4 -20 -22 -13 -13 4 -43 8 -67 8 -47 -1 -75 -24 -87 -72 -8 -30
20 -72 62 -92 25 -12 34 -12 71 1 43 15 43 15 43 -7 0 -28 -17 -35 -81 -35
-57 0 -84 12 -116 49 -23 26 -28 45 -24 90 7 75 115 132 195 101z m961 -20
c110 -68 49 -220 -89 -220 -56 0 -84 10 -117 44 -64 64 -28 173 66 199 34 10
106 -2 140 -23z m552 -6 c102 -77 34 -214 -104 -214 -108 0 -176 96 -127 179
42 71 159 89 231 35z m294 26 c20 -6 44 -19 53 -29 17 -18 17 -20 -1 -29 -13
-8 -22 -7 -35 5 -23 20 -88 27 -116 11 -13 -7 -31 -25 -39 -39 -45 -76 63
-162 137 -109 39 28 38 40 -5 40 -28 0 -35 4 -35 20 0 18 7 20 60 20 59 0 60
0 60 -28 0 -59 -57 -102 -136 -102 -91 0 -158 75 -135 151 23 75 105 113 192
89z m195 -50 l26 -40 30 44 c31 47 47 59 68 46 9 -6 2 -23 -28 -67 -33 -49
-41 -70 -44 -114 -3 -47 -6 -54 -25 -57 -21 -3 -23 0 -23 48 0 43 -6 60 -45
117 -31 46 -41 69 -33 74 18 11 46 -8 74 -51z m470 39 c8 -6 14 -15 14 -19 0
-14 -32 -21 -46 -9 -18 15 -64 3 -64 -16 0 -9 24 -26 55 -39 55 -25 72 -49 63
-92 -5 -29 -54 -57 -94 -56 -40 2 -87 36 -82 61 5 23 36 21 53 -5 26 -40 75
-26 75 22 0 16 -11 26 -42 39 -55 21 -78 42 -78 70 0 22 22 47 50 58 21 9 79
0 96 -14z m320 -11 c108 -74 47 -218 -92 -218 -86 0 -147 54 -147 130 0 98
146 151 239 88z m174 -79 l0 -99 40 0 c33 0 40 -3 40 -20 0 -18 -7 -20 -65
-20 l-65 0 0 118 c0 65 3 121 6 124 3 3 14 4 25 1 17 -5 19 -15 19 -104z m988
74 c102 -82 41 -213 -99 -213 -94 0 -154 56 -145 134 12 104 155 150 244 79z
m581 24 c14 -6 26 -17 28 -23 5 -16 -27 -26 -43 -13 -20 16 -59 7 -59 -14 0
-12 18 -27 55 -45 50 -25 55 -30 58 -64 5 -54 -27 -80 -92 -76 -40 2 -53 8
-69 30 -22 30 -22 32 8 42 15 4 23 0 30 -17 19 -42 75 -29 75 18 0 18 -10 27
-42 40 -81 32 -98 66 -53 110 27 27 66 32 104 12z m-4999 -11 c0 -9 -12 -16
-32 -18 l-33 -3 -3 -102 c-3 -102 -3 -103 -27 -103 -25 0 -25 0 -25 105 0 79
-3 105 -12 104 -31 -4 -48 2 -48 16 0 12 17 15 90 15 72 0 90 -3 90 -14z m210
-1 c0 -17 -6 -18 -67 -16 -41 2 -43 1 -43 -29 0 -29 1 -30 48 -30 53 0 63 -5
56 -25 -4 -10 -19 -12 -55 -8 l-49 5 0 -41 0 -41 55 0 c48 0 55 -2 55 -20 0
-18 -7 -20 -80 -20 l-80 0 0 120 0 120 80 0 c64 0 80 -3 80 -15z m410 -30 l0
-45 55 0 55 0 0 45 c0 41 2 45 25 45 l25 0 0 -120 0 -120 -25 0 c-24 0 -25 3
-25 55 l0 55 -54 0 -55 0 -3 -52 c-3 -46 -6 -53 -25 -56 -23 -3 -23 -2 -23
117 l0 121 25 0 c23 0 25 -4 25 -45z m980 -55 l0 -100 40 0 c33 0 40 -3 40
-20 0 -18 -7 -20 -65 -20 l-65 0 0 120 0 120 25 0 25 0 0 -100z m2010 11 c0
-82 2 -91 22 -105 29 -20 47 -20 70 1 15 13 18 32 18 105 0 87 0 88 25 88 25
0 25 -1 25 -85 0 -94 -11 -128 -47 -144 -55 -25 -132 -7 -152 36 -6 13 -11 62
-11 108 0 84 0 85 25 85 25 0 25 -1 25 -89z m390 74 c0 -10 -10 -15 -30 -15
l-30 0 0 -105 c0 -105 0 -105 -25 -105 -24 0 -24 1 -27 103 l-3 102 -32 3
c-21 2 -33 9 -33 18 0 11 18 14 90 14 73 0 90 -3 90 -15z"/>
<path d="M4252 1730 c-12 -5 -30 -26 -39 -45 -16 -33 -16 -39 -3 -63 35 -62
108 -75 165 -31 28 23 34 81 11 111 -25 33 -87 46 -134 28z"/>
<path d="M4790 1724 c-34 -24 -40 -34 -40 -69 0 -93 135 -127 183 -46 23 39
21 65 -6 96 -30 35 -100 45 -137 19z"/>
<path d="M6079 1725 c-51 -27 -57 -97 -13 -137 56 -49 156 -17 162 52 2 18 -2
43 -8 56 -23 42 -91 56 -141 29z"/>
<path d="M7244 1730 c-29 -12 -54 -49 -54 -80 0 -60 70 -102 135 -80 69 23 86
90 36 141 -31 30 -73 37 -117 19z"/>
</g>
</svg>
